<?xml version="1.0" encoding="utf-8"?>
<svg xmlns="http://www.w3.org/2000/svg" version="1.1" x="0px" y="0px" viewBox="0 0 32 40" style="enable-background:new 0 0 32 32;">
  <path d="M21.44,18.56c0.38-0.04,0.77-0.08,1.21-0.11c-0.43-0.03-0.83-0.06-1.21-0.09c0-1,0-1.74,0-1.82c0-0.02,0.01-1.05,0.02-1.54  c0.01-0.29-0.01-0.57-0.03-0.84c-0.01-2-0.02-3.99,0.03-5.99c0.08-3-1.19-5.18-3.71-6.7c-0.75-0.45-1.39-0.35-1.69,0.2  c-0.3-0.54-0.95-0.64-1.69-0.19c-2.53,1.53-3.79,3.71-3.71,6.7c0.05,2,0.04,3.99,0.03,5.99c-0.02,0.28-0.03,0.55-0.03,0.84  c0.01,0.23,0.01,1.68,0.01,3.36c-0.38,0.03-0.77,0.06-1.21,0.09c0.43,0.03,0.83,0.07,1.21,0.11c0,1.79,0.01,3.78,0.01,4.82  c0,0.28-0.11,0.6,0.14,0.87c0.41-0.22,0.24-0.6,0.25-0.9c0.01-1.21,0.01-3.23,0.02-4.73c4.37,0.56,4.98,2.39,4.98,12.62  c0-10.16,0.61-12.05,5-12.62c0,1.58,0,3.58,0.01,4.73c0,0.3-0.16,0.68,0.25,0.9c0.25-0.27,0.14-0.59,0.14-0.87  C21.44,22.17,21.44,20.11,21.44,18.56z M11.06,9.43c0.01-2.32,1.28-4.15,3.42-4.97c0.71-0.27,1.31,0.09,1.35,0.86  c0.04,0.69,0.01,1.39,0.01,2.2c0.09-0.04,0.16-0.09,0.21-0.13c0.05,0.04,0.12,0.08,0.2,0.13c0-0.8-0.03-1.5,0.01-2.2  c0.05-0.78,0.64-1.13,1.35-0.86c2.15,0.82,3.42,2.65,3.42,4.97c0,0.92,0,1.83,0,2.75c-0.55-1.6-1.65-2.88-3.3-3.88  C17,7.85,16.35,7.95,16.05,8.5c-0.3-0.54-0.95-0.64-1.69-0.19c-1.65,1-2.75,2.28-3.3,3.88C11.06,11.26,11.06,10.35,11.06,9.43z   M11.07,18.33c0-0.93,0-1.6-0.01-1.66c0-0.14,0-0.27,0-0.41c0.01-2.32,1.28-4.15,3.42-4.97c0.71-0.27,1.31,0.09,1.35,0.86  c0.04,0.63,0.02,1.27,0.01,1.98C15.46,17.37,14.64,17.99,11.07,18.33z M16.26,14.27c0-0.77-0.03-1.44,0.01-2.11  c0.05-0.78,0.64-1.13,1.35-0.86c2.15,0.82,3.42,2.65,3.42,4.97c0,0.06,0,0.93,0,2.07C17.5,18,16.65,17.39,16.26,14.27z" style="fill: rgb(232, 232, 232);"/>
  <text x="0" y="47" fill="#000000" font-size="5px" font-weight="bold" font-family="'Helvetica Neue', Helvetica, Arial-Unicode, Arial, Sans-serif" style="white-space: pre;">Created by Aldiyansah Ramadan</text>
  <text x="0" y="52" fill="#000000" font-size="5px" font-weight="bold" font-family="'Helvetica Neue', Helvetica, Arial-Unicode, Arial, Sans-serif" style="white-space: pre;">from the Noun Project</text>
</svg>